<svg xmlns="http://www.w3.org/2000/svg" xmlns:xlink="http://www.w3.org/1999/xlink" width="146" height="144" viewBox="0 0 146 144">
  <defs>
    <clipPath id="clip-path">
      <ellipse id="Elipse_7381" data-name="Elipse 7381" cx="73" cy="72" rx="73" ry="72" transform="translate(280 4226)" fill="#fff"/>
    </clipPath>
    <linearGradient id="linear-gradient" x1="0.163" y1="0.602" x2="0.696" y2="0.064" gradientUnits="objectBoundingBox">
      <stop offset="0.237" stop-color="#bfccd9"/>
      <stop offset="0.289" stop-color="#c4d0dc"/>
      <stop offset="0.354" stop-color="#d3dce5"/>
      <stop offset="0.424" stop-color="#ecf0f5"/>
      <stop offset="0.449" stop-color="#f7f9fc"/>
    </linearGradient>
    <linearGradient id="linear-gradient-2" x1="0.489" y1="0.69" x2="0.975" y2="0.08" gradientUnits="objectBoundingBox">
      <stop offset="0.145" stop-color="#f7f9fc"/>
      <stop offset="1" stop-color="#bfccd9"/>
    </linearGradient>
    <linearGradient id="linear-gradient-3" x1="171.637" y1="12.754" x2="172.361" y2="11.854" gradientUnits="objectBoundingBox">
      <stop offset="0" stop-color="#3d4663"/>
      <stop offset="0.027" stop-color="#4f5876"/>
      <stop offset="0.065" stop-color="#646d8c"/>
      <stop offset="0.108" stop-color="#727b9c"/>
      <stop offset="0.157" stop-color="#7b84a5"/>
      <stop offset="0.227" stop-color="#7e87a8"/>
      <stop offset="0.428" stop-color="#697292"/>
      <stop offset="0.799" stop-color="#495270"/>
      <stop offset="1" stop-color="#3d4663"/>
    </linearGradient>
    <linearGradient id="linear-gradient-4" x1="101.355" y1="12.377" x2="101.953" y2="11.695" gradientUnits="objectBoundingBox">
      <stop offset="0" stop-color="#3d4663"/>
      <stop offset="0.163" stop-color="#4b5472"/>
      <stop offset="0.773" stop-color="#7e87a8"/>
      <stop offset="0.843" stop-color="#7b84a5"/>
      <stop offset="0.892" stop-color="#727b9c"/>
      <stop offset="0.935" stop-color="#646d8c"/>
      <stop offset="0.973" stop-color="#4f5876"/>
      <stop offset="1" stop-color="#3d4663"/>
    </linearGradient>
    <linearGradient id="linear-gradient-5" x1="108.35" y1="0.778" x2="109.064" y2="0.222" gradientUnits="objectBoundingBox">
      <stop offset="0" stop-color="#d68600"/>
      <stop offset="1" stop-color="#d46931"/>
    </linearGradient>
    <linearGradient id="linear-gradient-6" x1="63.042" y1="0.985" x2="63.437" y2="0.003" gradientUnits="objectBoundingBox">
      <stop offset="0" stop-color="#d68600"/>
      <stop offset="0.186" stop-color="#e1990b"/>
      <stop offset="0.498" stop-color="#f1b21b"/>
      <stop offset="0.778" stop-color="#fbc224"/>
      <stop offset="1" stop-color="#ffc828"/>
    </linearGradient>
    <linearGradient id="linear-gradient-7" x1="77.965" y1="0.801" x2="78.977" y2="0.199" gradientUnits="objectBoundingBox">
      <stop offset="0" stop-color="#d46931"/>
      <stop offset="1" stop-color="#d68600"/>
    </linearGradient>
    <clipPath id="clip-path-2">
      <rect id="background" width="138.146" height="138.588" fill="none"/>
    </clipPath>
  </defs>
  <g id="Enmascarar_grupo_130543" data-name="Enmascarar grupo 130543" transform="translate(-280 -4226)" clip-path="url(#clip-path)">
    <g id="Grupo_897746" data-name="Grupo 897746" transform="translate(-388.989 3539.091)">
      <path id="background-2" data-name="background" d="M0,0,148.651-19.908l11.4,160.931L0,138.588Z" transform="translate(667.34 691.818)" fill="#64d8ff"/>
      <ellipse id="circle" cx="54.021" cy="30.898" rx="54.021" ry="30.898" transform="translate(682.392 747.195)" fill="#87e1ff"/>
      <g id="socket" transform="translate(680.882 707.712)">
        <path id="Trazado_667914" data-name="Trazado 667914" d="M699.788,740.485,686.05,748.39c-2.462,1.422-7.625-.684-7.519-5.942l-.085-16.6c0-3.991,2.763-9.522,3.906-10.183l14.966-5.782c3.251-1.96,5.541.356,5.541,3.2l-.051,21.109A6.563,6.563,0,0,1,699.788,740.485Z" transform="translate(-678.446 -703.909)" fill="#87e1ff" style="mix-blend-mode: multiply;isolation: isolate"/>
        <path id="Trazado_667915" data-name="Trazado 667915" d="M703.649,705.48a3.67,3.67,0,0,0-3.5-.329,3.875,3.875,0,0,0-.4.2l-16.2,9.313s-2.917,1.586-2.968,6.141l-.038,21.2c0,.027,0,.054,0,.081a3.669,3.669,0,0,0,2.175,3.287l3.581,1.9,10.164-19.516,1.066-1.949.894-1.634,9.243-16.5Z" transform="translate(-677.986 -704.853)" fill="url(#linear-gradient)"/>
        <path id="Trazado_667916" data-name="Trazado 667916" d="M705.61,738.221,689.8,747.287a3.693,3.693,0,0,1-5.541-3.2l.01-20.505c0-3.991,1.978-6.352,3.122-7.011l15.75-8.954c3.25-1.959,5.541.356,5.541,3.2l-.051,21.109A6.562,6.562,0,0,1,705.61,738.221Z" transform="translate(-677.17 -704.405)" fill="#e6edf7"/>
        <path id="Trazado_667917" data-name="Trazado 667917" d="M684.291,744.1l-.028-1.711-.021-1.71-.042-3.42q-.031-3.42-.052-6.84c-.016-2.28-.019-4.56-.028-6.841l.012-.434c0-.144,0-.289.021-.433.028-.289.048-.578.1-.863a9.839,9.839,0,0,1,.406-1.691l.148-.411c.055-.135.113-.268.171-.4s.124-.262.189-.393l.1-.2.11-.19a7.237,7.237,0,0,1,1.044-1.407l.155-.157.166-.148c.107-.1.232-.188.349-.279l.191-.125.049-.03.046-.026.093-.054.372-.21,1.488-.844L692.3,713.6c1.988-1.117,3.971-2.241,5.962-3.352l2.985-1.671,1.495-.832.373-.207.189-.1c.063-.035.125-.072.191-.1l.2-.094c.065-.033.133-.057.2-.087.133-.059.272-.1.41-.149a4.327,4.327,0,0,1,.856-.168,3.273,3.273,0,0,1,.872.045,2.965,2.965,0,0,1,1.521.8,3.806,3.806,0,0,1,.9,1.458,4.961,4.961,0,0,1,.261,1.686,4.907,4.907,0,0,0-.316-1.667,3.734,3.734,0,0,0-.916-1.4,2.843,2.843,0,0,0-1.477-.735,3.118,3.118,0,0,0-.832-.022,4.073,4.073,0,0,0-.814.182c-.131.049-.263.091-.39.151-.063.029-.129.054-.191.087l-.187.1c-.063.029-.124.066-.185.1l-.182.106-.371.215-1.478.858-2.962,1.711c-1.973,1.143-3.954,2.273-5.931,3.408l-2.97,1.7-1.485.847c-.244.141-.508.28-.721.426-.106.085-.217.161-.317.256l-.152.138-.145.148a6.772,6.772,0,0,0-.99,1.33l-.106.18-.094.187c-.062.124-.13.246-.182.376s-.112.256-.165.385l-.143.394a9.324,9.324,0,0,0-.4,1.628c-.052.276-.071.555-.1.834-.017.139-.017.28-.023.421l-.015.421c-.012,2.279-.016,4.559-.035,6.839s-.035,4.559-.058,6.84l-.044,3.42-.022,1.71Z" transform="translate(-677.201 -704.419)" fill="#fff"/>
        <path id="Trazado_667918" data-name="Trazado 667918" d="M702.82,721.578a15.289,15.289,0,0,1-6.919,11.983c-3.823,2.207-6.92.418-6.92-3.995a15.291,15.291,0,0,1,6.92-11.985C699.723,715.375,702.82,717.164,702.82,721.578Z" transform="translate(-676.135 -702.267)" fill="#fff"/>
        <path id="Trazado_667919" data-name="Trazado 667919" d="M702.573,721.368a15.281,15.281,0,0,1-6.919,11.982c-3.823,2.208-6.92.418-6.92-3.993a15.291,15.291,0,0,1,6.92-11.985C699.477,715.164,702.573,716.954,702.573,721.368Z" transform="translate(-676.189 -702.314)" fill="#d5dee8"/>
        <path id="Trazado_667920" data-name="Trazado 667920" d="M698.785,716.439a5.371,5.371,0,0,1,1.389,3.985,11.456,11.456,0,0,1-.365,2.768,15.2,15.2,0,0,1-.937,2.644,16.892,16.892,0,0,1-1.217,2.208,15.959,15.959,0,0,1-1.742,2.218,11.918,11.918,0,0,1-2.658,2.146,5.994,5.994,0,0,1-3.382.929c1.262,1.213,3.264,1.319,5.531.01a11.707,11.707,0,0,0,2.472-1.952,15.745,15.745,0,0,0,1.784-2.194,17.036,17.036,0,0,0,1.252-2.188,15.506,15.506,0,0,0,.98-2.618,11.686,11.686,0,0,0,.43-3.03C702.323,718.372,700.9,716.59,698.785,716.439Z" transform="translate(-675.939 -702.311)" fill="url(#linear-gradient-2)"/>
        <g id="Grupo_897725" data-name="Grupo 897725" transform="translate(14.596 24.135)">
          <path id="Trazado_667921" data-name="Trazado 667921" d="M690.416,728.083l1.065-.615v-2.822l-1.065.615Z" transform="translate(-690.416 -724.646)" fill="#a1b2c4"/>
          <path id="Trazado_667922" data-name="Trazado 667922" d="M690.416,727.636l1.065-.615-1.065-.339Z" transform="translate(-690.416 -724.199)" fill="#f7f9fc"/>
        </g>
        <g id="Grupo_897726" data-name="Grupo 897726" transform="translate(20.652 21.329)">
          <path id="Trazado_667923" data-name="Trazado 667923" d="M695.383,725.781l1.065-.615v-2.822l-1.065.615Z" transform="translate(-695.383 -722.344)" fill="#a1b2c4"/>
          <path id="Trazado_667924" data-name="Trazado 667924" d="M695.383,725.334l1.065-.615-1.065-.339Z" transform="translate(-695.383 -721.897)" fill="#f7f9fc"/>
        </g>
        <g id="Grupo_897727" data-name="Grupo 897727" transform="translate(17.949 16.737)">
          <path id="Trazado_667925" data-name="Trazado 667925" d="M693.166,722.015l1.065-.615v-2.822l-1.065.615Z" transform="translate(-693.166 -718.579)" fill="#a1b2c4"/>
          <path id="Trazado_667926" data-name="Trazado 667926" d="M693.166,721.569l1.065-.615-1.065-.339Z" transform="translate(-693.166 -718.132)" fill="#f7f9fc"/>
        </g>
        <g id="man" transform="translate(13.287 14.923)">
          <g id="Grupo_897729" data-name="Grupo 897729">
            <g id="Grupo_897728" data-name="Grupo 897728">
              <path id="Trazado_667927" data-name="Trazado 667927" d="M706.744,725.588c.135-1.845-1.218-3.352-3.825-3.842a13.915,13.915,0,0,0-11.879,4.169c-1.346,1.569-1.712,3.142-1.212,4.4a3.191,3.191,0,0,0,.757,1.121l3.3,9.606,7.581-4.347Z" transform="translate(-689.283 -716.105)" fill="#e6edf7" style="mix-blend-mode: multiply;isolation: isolate"/>
              <path id="Trazado_667928" data-name="Trazado 667928" d="M701.6,718.436l-2.066-.878c-1.16-.737-2.783-.627-4.541.5a13.563,13.563,0,0,0-5.639,10.9,4.456,4.456,0,0,0,1.771,3.767l2.279,1.449.618-1.189a6.581,6.581,0,0,0,1.627-.771,13.562,13.562,0,0,0,5.638-10.9,6.585,6.585,0,0,0-.293-1.717Z" transform="translate(-689.342 -717.091)" fill="url(#linear-gradient-3)"/>
              <path id="Trazado_667929" data-name="Trazado 667929" d="M690.35,729.514a13.564,13.564,0,0,1,5.638-10.9,10.133,10.133,0,0,1,3.162-1.256,4.412,4.412,0,0,0-4.161.7,13.563,13.563,0,0,0-5.639,10.9,4.456,4.456,0,0,0,1.771,3.767l.268.171A7.09,7.09,0,0,1,690.35,729.514Z" transform="translate(-689.342 -717.091)" fill="#bfccd9" style="mix-blend-mode: multiply;isolation: isolate"/>
              <path id="Trazado_667930" data-name="Trazado 667930" d="M712.064,730.125l-5.286-4.708-4.27-6.22c-1.167-1.434-3.186-1.6-5.419-.171a13.911,13.911,0,0,0-5.784,11.183c.1,2.064.91,3.461,2.138,4.035a3.194,3.194,0,0,0,1.319.3h8.2l6.205,1.271Z" transform="translate(-688.97 -716.923)" fill="url(#linear-gradient-4)"/>
              <path id="Trazado_667931" data-name="Trazado 667931" d="M702.517,719.2a3.109,3.109,0,0,0-1.164-.918,3.335,3.335,0,0,0-1.464-.283,4.657,4.657,0,0,0-1.469.3,7.46,7.46,0,0,0-1.345.666,10.5,10.5,0,0,0-2.26,1.965,14.825,14.825,0,0,0-2.945,5.179,12.279,12.279,0,0,0-.593,2.933l-.026.374c0,.126,0,.25,0,.376l0,.376c0,.124.017.249.026.374a6.494,6.494,0,0,0,.3,1.468,4.4,4.4,0,0,0,.7,1.32,3.5,3.5,0,0,0,.528.53,3.368,3.368,0,0,0,.638.386,3.28,3.28,0,0,1-.622-.407,3.407,3.407,0,0,1-.507-.538,4.311,4.311,0,0,1-.66-1.317,6.477,6.477,0,0,1-.273-1.452c-.006-.123-.017-.247-.019-.37l0-.371c0-.123,0-.247,0-.371l.031-.369a12.771,12.771,0,0,1,.61-2.894,15.452,15.452,0,0,1,2.914-5.125,10.857,10.857,0,0,1,2.212-1.956,7.48,7.48,0,0,1,1.312-.677,4.661,4.661,0,0,1,1.435-.319,3.274,3.274,0,0,1,1.445.242A3.179,3.179,0,0,1,702.517,719.2Z" transform="translate(-688.924 -716.891)" fill="#9da8d1"/>
              <path id="Trazado_667932" data-name="Trazado 667932" d="M707.747,732.921l-.854.547c-.741.474-1.374.148-1.414-.732l-.076-1.63a3.585,3.585,0,0,1,1.6-2.54l.854-.546c.74-.476,1.374-.148,1.414.732l.087,1.863A3.181,3.181,0,0,1,707.747,732.921Z" transform="translate(-685.819 -714.741)" fill="#848ead"/>
              <path id="Trazado_667933" data-name="Trazado 667933" d="M701.175,733.18a2.319,2.319,0,0,1-.606-1.811,7.732,7.732,0,0,1,3.212-6.21,2.937,2.937,0,0,1,1.8-.541l-.083-.035a2.314,2.314,0,0,0-2.522.278,7.531,7.531,0,0,0-3.131,6.054,2.476,2.476,0,0,0,.984,2.091Z" transform="translate(-687.039 -715.504)" fill="#7e87a8"/>
              <path id="Trazado_667934" data-name="Trazado 667934" d="M702.383,733.327a2.7,2.7,0,0,1-.7-1.867,7.065,7.065,0,0,1,2.935-5.675,2.578,2.578,0,0,1,1.6-.5l-.035-.029a2.117,2.117,0,0,0-2.3.254,6.886,6.886,0,0,0-2.862,5.532,2.509,2.509,0,0,0,.938,2.019Z" transform="translate(-686.781 -715.351)" fill="#7e87a8"/>
              <path id="Trazado_667935" data-name="Trazado 667935" d="M703.323,733.4a2.115,2.115,0,0,1-.577-1.6,6.6,6.6,0,0,1,2.745-5.308,2.418,2.418,0,0,1,1.5-.466l-.038-.028a1.978,1.978,0,0,0-2.155.238,6.437,6.437,0,0,0-2.677,5.175,2.115,2.115,0,0,0,.84,1.788Z" transform="translate(-686.539 -715.185)" fill="#7e87a8"/>
              <path id="Trazado_667936" data-name="Trazado 667936" d="M704.394,733.5a1.926,1.926,0,0,1-.55-1.451,6.008,6.008,0,0,1,2.5-4.831,2.283,2.283,0,0,1,1.4-.422l-.065-.027a1.8,1.8,0,0,0-1.962.216,5.856,5.856,0,0,0-2.435,4.709,1.927,1.927,0,0,0,.764,1.628Z" transform="translate(-686.286 -715.012)" fill="#7e87a8"/>
              <path id="Trazado_667937" data-name="Trazado 667937" d="M705.363,733.6a1.842,1.842,0,0,1-.506-1.363,5.552,5.552,0,0,1,2.307-4.459,1.93,1.93,0,0,1,1.224-.393l-.083-.073a1.806,1.806,0,0,0-1.719.251,5.4,5.4,0,0,0-2.249,4.347,1.778,1.778,0,0,0,.706,1.5Z" transform="translate(-686.053 -714.873)" fill="#7e87a8"/>
            </g>
          </g>
          <g id="Grupo_897730" data-name="Grupo 897730" transform="translate(13.832 34.01)" style="mix-blend-mode: multiply;isolation: isolate">
            <path id="Trazado_667938" data-name="Trazado 667938" d="M701.687,744.982c-.436.276-1.093,1.3-.99,3.248.127,2.388,2.572,5.134,4.274,6.1l21.382,12.141a1.585,1.585,0,0,0,.787.207,1.6,1.6,0,0,0,.79-3l-21.382-12.143A11.515,11.515,0,0,1,701.687,744.982Z" transform="translate(-700.686 -744.982)" fill="#87e1ff"/>
          </g>
          <g id="Grupo_897732" data-name="Grupo 897732" transform="translate(13.112 14.767)">
            <g id="Grupo_897731" data-name="Grupo 897731">
              <path id="Trazado_667939" data-name="Trazado 667939" d="M700.224,747.18a12.06,12.06,0,0,0,6.358,8.916c1.907,1.041,6.82,3.75,11.573,6.368,4.665,2.57,9.71,5.423,11.4,6.344a1.707,1.707,0,1,0,1.636-3c-1.683-.918-6.725-3.77-11.388-6.338-4.753-2.62-9.67-5.329-11.582-6.374a8.729,8.729,0,0,1-4.6-6.3,21.9,21.9,0,0,1-.1-2.506,1.494,1.494,0,0,1,.446-1.161l.05-.03c.336-.189,1.108-.165,2.27.471s2.812,1.519,4.547,2.45c1.92,1.031,3.906,2.1,5.462,2.947l2.585,1.482a6.214,6.214,0,0,0,4.885.815,3.62,3.62,0,0,0,.537-.228c.056-.028.11-.059.162-.089a3.547,3.547,0,0,0,1.435-1.6,14.412,14.412,0,0,0,.752-2.816,9.9,9.9,0,0,0-1.226-6.37,13.116,13.116,0,0,0-5.207-5.235l-10.057-5.519a1.707,1.707,0,0,0-1.636,3l10.056,5.519c3.468,1.892,5.146,5.623,4.71,7.992-.182.994-.2,1.784-.661,2.094-.278.189-1.019.037-2.1-.55l-2.584-1.482c-1.571-.856-3.569-1.929-5.5-2.966-1.729-.929-3.362-1.8-4.525-2.439-2.816-1.538-4.7-.943-5.579-.451a4.672,4.672,0,0,0-2.236,4.007A24.553,24.553,0,0,0,700.224,747.18Z" transform="translate(-700.095 -729.201)" fill="#7e87a8"/>
            </g>
          </g>
          <g id="Grupo_897733" data-name="Grupo 897733" transform="translate(13.242 15.663)">
            <path id="Trazado_667940" data-name="Trazado 667940" d="M715.633,736.006c2.994,1.634,5.741,4.2,5.858,6.513a9.557,9.557,0,0,0-4.259-4.754l-10.093-5.52a1.612,1.612,0,0,1-.646-2.308c.055.039-.422.678.939,1.518C709.375,732.653,715.633,736.006,715.633,736.006Z" transform="translate(-698.878 -729.936)" fill="#3d4663"/>
            <path id="Trazado_667941" data-name="Trazado 667941" d="M724.784,746.763a3.547,3.547,0,0,1-1.435,1.6c-.052.03-.106.061-.162.089a3.626,3.626,0,0,1-.537.228,6.215,6.215,0,0,1-4.885-.815l-2.585-1.482c-1.556-.851-3.541-1.916-5.462-2.947-1.735-.93-3.373-1.81-4.547-2.45a66.823,66.823,0,0,1,8.567,3.953c3.244,1.694,5.3,3.063,7.848,2.995,2.769-.073,3.95-3.987,3.95-3.987A14.4,14.4,0,0,1,724.784,746.763Z" transform="translate(-699.112 -727.512)" fill="#3d4663"/>
            <path id="Trazado_667942" data-name="Trazado 667942" d="M706.765,751.987c1.89,1.073,5.88,3.235,10.632,5.852,4.667,2.572,9.562,5.253,11.25,6.175a1.712,1.712,0,0,0,.816.207c.6,0,.574-1.5,1.873-1.532l0-.006a1.456,1.456,0,0,1,.552,2.287,1.478,1.478,0,0,1-1.518.854,1.88,1.88,0,0,1-.843-.254c-1.688-.922-6.732-3.774-11.4-6.344-4.753-2.618-9.666-5.326-11.573-6.368a12.065,12.065,0,0,1-6.357-8.9A15.064,15.064,0,0,0,706.765,751.987Z" transform="translate(-700.202 -726.86)" fill="#3d4663"/>
          </g>
          <g id="Grupo_897734" data-name="Grupo 897734" transform="translate(33.178 21.897)">
            <path id="Trazado_667943" data-name="Trazado 667943" d="M721.8,744.626a.513.513,0,0,0,.512-.491,9.689,9.689,0,0,0-1.594-5.727,13.413,13.413,0,0,0-3.375-3.275.512.512,0,0,0-.562.856,12.6,12.6,0,0,1,3.085,2.987,8.648,8.648,0,0,1,1.422,5.118.513.513,0,0,0,.491.533Z" transform="translate(-716.551 -735.048)" fill="#9da8d1"/>
          </g>
          <g id="Grupo_897735" data-name="Grupo 897735" transform="translate(14.061 25.923)">
            <path id="Trazado_667944" data-name="Trazado 667944" d="M701.386,741.885a.513.513,0,0,0,.511-.483,2.139,2.139,0,0,1,1.819-2c1.539-.2,2.987.606,4.387,1.388.2.111.4.222.6.329a.513.513,0,0,0,.489-.9c-.194-.1-.389-.213-.584-.323-1.474-.823-3.145-1.756-5.021-1.508a3.128,3.128,0,0,0-2.708,2.955.512.512,0,0,0,.484.539Z" transform="translate(-700.873 -738.35)" fill="#9da8d1"/>
          </g>
        </g>
        <path id="Trazado_667945" data-name="Trazado 667945" d="M726.345,760.623a1.216,1.216,0,0,1-.584.923c-.323.186-.585.076-.585-.248a1.214,1.214,0,0,1,.585-.923C726.083,760.189,726.345,760.3,726.345,760.623Z" transform="translate(-668.194 -692.692)" fill="#fbde21"/>
        <path id="Trazado_667946" data-name="Trazado 667946" d="M725.886,761.2c-.323.187-.585.076-.585-.248a.8.8,0,0,1,.048-.257,1,1,0,0,0-.172.513c0,.323.262.434.585.247a1.3,1.3,0,0,0,.538-.666A1.265,1.265,0,0,1,725.886,761.2Z" transform="translate(-668.194 -692.602)" fill="#fbcb21"/>
        <g id="Grupo_897737" data-name="Grupo 897737" transform="translate(58.296 67.559)">
          <path id="Trazado_667947" data-name="Trazado 667947" d="M729.392,762.787c-.223-.179-.451-.35-.682-.516l-.041-.031-.076.035c-.178.08-.351.167-.522.257l0-.023c.032-.179.059-.358.084-.538s.048-.36.066-.54.037-.361.049-.543l.042-.633-.444.406c-.179.163-.354.332-.527.5s-.29.3-.463.458c-.183-.044-.418-.117-.628-.187.2.146.4.285.6.419l.041.027.065-.038q.316-.185.622-.385l.086-.058c-.028.163-.054.327-.078.491s-.048.36-.066.54-.035.361-.048.543l-.039.582.426-.343a10.477,10.477,0,0,0,.811-.719C728.914,762.6,729.15,762.7,729.392,762.787Z" transform="translate(-726.254 -760.257)" fill="#fbde21"/>
          <g id="Grupo_897736" data-name="Grupo 897736" transform="translate(0 0.799)">
            <path id="Trazado_667948" data-name="Trazado 667948" d="M728.811,762.331l.029.011-.074-.057A.428.428,0,0,0,728.811,762.331Z" transform="translate(-725.703 -760.611)" fill="#fbcb21"/>
            <path id="Trazado_667949" data-name="Trazado 667949" d="M728.655,762.223a4.918,4.918,0,0,1-.546.5l-.426.343.038-.582c.012-.181.029-.362.049-.543s.042-.36.066-.54c.024-.165.049-.328.078-.491l-.088.059c-.2.134-.932.648-.932.648-.2-.134-.441-.178-.64-.324.2.146.4.285.6.419l.041.027.065-.038q.316-.185.622-.385l.086-.059c-.028.163-.054.327-.078.491s-.048.36-.066.54-.035.361-.048.543l-.039.582.426-.343a10.5,10.5,0,0,0,.811-.719q.322.141.651.267C729.1,762.522,728.878,762.32,728.655,762.223Z" transform="translate(-726.254 -760.912)" fill="#fbcb21"/>
          </g>
        </g>
      </g>
      <g id="lightning" transform="translate(737.569 724.429)">
        <g id="Grupo_897743" data-name="Grupo 897743" style="isolation: isolate">
          <g id="Grupo_897738" data-name="Grupo 897738" transform="translate(4.884 30.362)">
            <path id="Trazado_667950" data-name="Trazado 667950" d="M728.427,761.218l4.527-2.631L736.6,743.03l-4.527,2.631Z" transform="translate(-728.427 -743.03)" fill="url(#linear-gradient-5)"/>
          </g>
          <g id="Grupo_897739" data-name="Grupo 897739" transform="translate(0.105 16.084)">
            <path id="Trazado_667951" data-name="Trazado 667951" d="M734.13,741.164l4.527-2.631-9.595-7.213-4.555,2.5Z" transform="translate(-724.507 -731.321)" fill="url(#linear-gradient-6)"/>
          </g>
          <g id="Grupo_897740" data-name="Grupo 897740" transform="translate(13.41 7.068)">
            <path id="Trazado_667952" data-name="Trazado 667952" d="M735.418,756.209l4.527-2.631,6.557-29.652-4.527,2.631Z" transform="translate(-735.418 -723.926)" fill="url(#linear-gradient-7)"/>
          </g>
          <g id="Grupo_897741" data-name="Grupo 897741" transform="translate(7.73)">
            <path id="Trazado_667953" data-name="Trazado 667953" d="M743,727.829l4.527-2.631-12.189-7.068-4.575,2.5Z" transform="translate(-730.76 -718.13)" fill="#ffc828"/>
          </g>
          <g id="Grupo_897742" data-name="Grupo 897742" transform="translate(0.203 2.663)">
            <path id="Trazado_667954" data-name="Trazado 667954" d="M734.113,743.579l-9.525-7.164,4.682,29.786,3.644-15.558L737.794,757l6.557-29.651-12.12-7.036Z" transform="translate(-724.587 -720.314)" fill="#fff43c"/>
          </g>
          <path id="Trazado_667955" data-name="Trazado 667955" d="M744.387,727.387l-12.018-7.211a.2.2,0,0,0-.3.189l1.846,22.82-9.166-6.893a.2.2,0,0,0-.322.193l4.882,29.755L724.9,736.911l9.13,6.866a.2.2,0,0,0,.323-.178L732.5,720.713Z" transform="translate(-724.421 -717.688)" fill="#fffbb8"/>
        </g>
      </g>
      <g id="cable" transform="translate(667.34 691.818)">
        <g id="Grupo_897745" data-name="Grupo 897745" clip-path="url(#clip-path-2)">
          <g id="Grupo_897744" data-name="Grupo 897744" transform="translate(74.377 86.067)">
            <path id="Trazado_667956" data-name="Trazado 667956" d="M800.119,783.316l-15.809-9.664a13.938,13.938,0,0,0-17.118,2,10.531,10.531,0,0,1-12.726,1.609l-23.981-14.053a1.731,1.731,0,0,0-1.742,2.991l23.98,14.055a13.986,13.986,0,0,0,16.9-2.137,10.5,10.5,0,0,1,12.893-1.51l15.809,9.664a1.731,1.731,0,0,0,1.8-2.959Z" transform="translate(-727.888 -761.354)" fill="#87e1ff" style="mix-blend-mode: multiply;isolation: isolate"/>
            <path id="Trazado_667957" data-name="Trazado 667957" d="M801.263,782l-15.809-9.664a13.938,13.938,0,0,0-17.118,2,10.535,10.535,0,0,1-12.726,1.609L731.629,761.9a1.731,1.731,0,0,0-1.742,2.991l23.981,14.053a13.982,13.982,0,0,0,16.9-2.137,10.5,10.5,0,0,1,12.893-1.508l15.809,9.664a1.731,1.731,0,0,0,1.8-2.959Z" transform="translate(-727.627 -761.66)" fill="#7e87a8"/>
            <path id="Trazado_667958" data-name="Trazado 667958" d="M800.6,783.786a1.717,1.717,0,0,1-.9-.253l-15.809-9.664A10.5,10.5,0,0,0,771,775.379a13.984,13.984,0,0,1-16.9,2.136l-23.981-14.053a1.727,1.727,0,0,1-.822-1.154l-.037.059a1.734,1.734,0,0,0,.62,2.37l23.981,14.053a13.982,13.982,0,0,0,16.9-2.137,10.5,10.5,0,0,1,12.893-1.508l15.809,9.664a1.73,1.73,0,0,0,2.592-1.823A1.727,1.727,0,0,1,800.6,783.786Z" transform="translate(-727.627 -761.509)" fill="#3d4663"/>
          </g>
        </g>
      </g>
    </g>
  </g>
</svg>
